<mxfile host="app.diagrams.net" modified="2023-10-23T19:09:03.178Z" agent="Mozilla/5.0 (Windows NT 10.0; Win64; x64) AppleWebKit/537.36 (KHTML, like Gecko) Chrome/118.0.0.0 Safari/537.36" version="22.0.6" etag="ZdlKsY_u5Jx-Tt1BZGbh" type="github">
  <diagram name="PÃ¡gina-1" id="WnM000oSNdYDZ03F36Mp">
    <mxGraphModel>
      <root>
        <mxCell id="0" />
        <mxCell id="1" parent="0" />
      </root>
    </mxGraphModel>
  </diagram>
</mxfile>
